PathFileType	4	(X/Y/Z)	Patient4_TMGait_0pt8_01_right_01.trc.trc
DataRate	CameraRate	NumFrames	NumMarkers	Units	OrigDataRate	OrigDataStartFrame	OrigNumFrames
86.956521739130	86.956521739130	6	33	mm	86.956521739130	106	       141
Frame#	Time	Sacral			L.Shoulder			Chest			R.Shoulder			Neck			R.ASIS			L.ASIS			R.Thigh.Superior			R.Thigh.Lateral			R.Thigh.Inferior			R.Patella			L.Thigh.Superior			L.Thigh.Lateral			L.Thigh.Inferior			L.Patella			L.Shank.Superior			L.Shank.Lateral			L.Shank.Inferior			R.Shank.Superior			R.Shank.Lateral			R.Shank.Inferior			R.Heel			R.Midfoot.Superior			R.Midfoot.Lateral			R.Toe			L.Heel			L.Midfoot.Lateral			L.Midfoot.Superior			L.Toe			L.Elbow			L.Wrist			R.Elbow			R.Wrist			
		X1	Y1	Z1	X2	Y2	Z2	X3	Y3	Z3	X4	Y4	Z4	X5	Y5	Z5	X6	Y6	Z6	X7	Y7	Z7	X8	Y8	Z8	X9	Y9	Z9	X10	Y10	Z10	X11	Y11	Z11	X12	Y12	Z12	X13	Y13	Z13	X14	Y14	Z14	X15	Y15	Z15	X16	Y16	Z16	X17	Y17	Z17	X18	Y18	Z18	X19	Y19	Z19	X20	Y20	Z20	X21	Y21	Z21	X22	Y22	Z22	X23	Y23	Z23	X24	Y24	Z24	X25	Y25	Z25	X26	Y26	Z26	X27	Y27	Z27	X28	Y28	Z28	X29	Y29	Z29	X30	Y30	Z30	X31	Y31	Z31	X32	Y32	Z32	X33	Y33	Z33	

106	1.947500000000	765.700088650843	1010.972452738143	411.712401632668	974.806463748175	1421.253097210238	216.011352500116	1058.394771743513	1360.903380556335	390.931097150781	962.780734934853	1450.548903516486	551.384990504220	958.405239702991	1494.463678425815	365.384074143069	988.236054658865	944.822879618977	537.688286237351	987.058247297457	965.037501974615	262.597237153731	1081.755369450745	795.036640792919	526.668720131897	1048.985425952439	674.343724655076	608.150748508850	1150.443546976605	642.485963959102	540.683326608263	1181.673415719700	534.709663142341	571.042727046720	1013.964196025254	750.700085176615	286.485231828654	911.626507848149	641.371387569866	230.564165997820	992.931734930753	557.444605030008	287.691836074340	987.182253769448	490.119652673311	297.142799065423	960.405044031285	420.074490669390	293.598214044970	864.330785149287	305.226794175944	255.823539462734	924.769886676835	196.098047534347	324.659076250587	1117.199230510353	449.842025531419	572.082772047824	999.312205313723	390.891899946126	622.068145865365	1008.757721037390	280.215594034884	575.172584517347	826.173628656577	183.306349867015	529.183248894010	996.965942934893	156.795051653548	591.092493986035	885.578196240519	138.674823921605	612.198572786909	1074.616090468037	57.156414109872	630.042188117095	801.561713233135	39.505151438963	382.606654652503	872.741647034253	34.526432669492	299.269295328238	956.614069423002	97.744753979596	320.322434975975	1083.893641461484	47.376214878555	290.762123519407	1064.396366130592	1095.614773555168	79.318105555061	1254.037831730873	915.184991378317	74.593135446063	834.510981065990	1133.506261815711	679.720757963458	867.091138673929	875.908054601854	715.148378250590	
107	1.959000000000	764.449761101989	1010.672132963707	411.714858225156	974.847750262636	1420.626216468256	216.615916260416	1057.706480960861	1360.104337066578	391.804913225724	961.849874230090	1449.960779668655	551.960558738054	958.082045041529	1493.873443806484	365.867766054698	986.489317577084	944.142402167261	538.200432393380	986.120274716796	964.745649744166	263.089343982499	1080.200363221700	795.497615554051	526.338567538700	1048.897580203678	674.705313360648	608.076950245563	1149.617102569553	643.299114625750	539.412767964661	1182.969456170575	537.524865279916	570.247262529099	1011.056079614131	749.618024308814	286.830339082703	907.007392895224	641.370189713534	230.833016469605	986.832352794779	556.477625840428	288.045748860839	980.217604051674	489.334288160449	297.714585887063	953.186237739657	419.576819798815	294.021429481794	856.592937385959	305.285432116249	255.866561632805	916.139834889746	195.764428029780	324.924967543057	1122.389578651098	450.869043862216	572.574943933458	1008.529035312585	385.694585769856	623.945575369574	1024.317163397223	275.250258581989	578.005458687879	847.727379615651	167.194844859970	533.553235525679	1019.845617936304	151.338308339259	595.553469950524	909.697929300707	127.154085861858	617.155196261660	1103.063648568006	56.834700693405	635.811045846360	792.286680456178	39.456660514805	382.622460864619	863.440574955443	34.495876432825	299.274143385919	947.327280229924	97.684285349149	320.435255136817	1074.633074427897	47.302718723829	290.783845601360	1068.200080765263	1097.697291547893	77.990967239511	1266.071339098491	926.097242151270	73.957077426115	828.169499662235	1135.542871178814	679.982844646888	842.444722789444	876.702644544567	719.979885807287	
108	1.970500000000	763.308275360127	1010.391748577449	411.827346517506	974.985312917185	1419.961441539729	217.405726443667	1057.135954306755	1359.241255440041	392.844920200576	961.052251334880	1449.309959268281	552.702474087318	957.864843289713	1493.224786249587	366.553246749585	984.798361038318	943.329234227508	538.840046566056	985.260849197686	964.375120739456	263.723874936046	1078.301331870666	795.443516648511	526.036503221999	1048.148065653314	674.560484730300	607.970954530088	1148.101321781498	643.453076949320	538.190472720901	1183.353932524052	539.818014225653	569.421937861272	1008.110580755153	748.442955907031	287.253685337793	902.333352025333	641.357022269351	231.206268033999	980.624759220767	555.493047593943	288.516251542235	973.152973321808	488.555693196404	298.387918686470	945.876596255380	419.105386069360	294.533723787348	848.814063214588	305.342913869014	255.938005471526	907.488491265686	195.447879721029	325.246377331277	1126.893039872784	451.637646888685	572.981072168099	1017.522665259948	380.343520878673	625.645890754511	1039.846144595263	270.569432350149	580.590621953674	870.158899806933	151.532799909978	537.504631022056	1042.945345509485	146.601796201657	599.648879325248	934.431949864896	116.252612118392	621.661990240839	1131.513886589558	57.658104940514	641.100258470917	783.022167128333	39.403028511131	382.640954247625	854.128597897353	34.467030803579	299.281679195866	938.030809784732	97.627385066616	320.557748373533	1065.360564971606	47.242370151244	290.790094745497	1071.365691332880	1099.533747664138	76.894773073044	1276.926172603993	937.016996392660	73.710131452344	821.813732405803	1137.858821394739	680.483239229462	819.404431039961	879.136460053093	724.328731411802	
109	1.982000000000	762.293114094740	1010.123657845908	412.040523454731	975.229237498888	1419.264258667777	218.380810580324	1056.689767924272	1358.317315114996	394.051917440568	960.388129583702	1448.603733280388	553.602251163074	957.758546742033	1492.519533321748	367.442034001497	983.186241006436	942.396943622726	539.607552216847	984.499257935290	963.925843837130	264.492943665664	1076.095564497016	794.886280198928	525.808403554141	1046.721974392675	673.896381572145	607.868686569645	1145.951693765245	642.964649481086	537.127504647084	1182.843732318414	541.573703753890	568.631059584332	1005.112917073129	747.165742775131	287.790263976943	897.608329789759	641.326152773283	231.690541299868	974.305171827571	554.488322492942	289.130175819248	965.988920903514	487.783359360014	299.175025804849	938.470745208199	418.663562537551	295.145751254868	840.996617190716	305.396725010875	256.042960238554	898.816767333493	195.152536402752	325.633350672445	1130.707407856099	452.165637619379	573.308368293518	1026.276712335980	374.912296714641	627.173735998938	1055.223446382639	266.283486406060	582.880648152962	893.291087769273	136.605971340623	541.003339691927	1066.074997584496	142.682706573440	603.256118201077	959.608820376527	106.141354079968	625.622855982461	1159.711294257610	59.651530293395	645.672904055349	773.763202822864	39.345516590272	382.667297117844	844.806266185378	34.441694514041	299.295971348720	928.725768090148	97.570580356669	320.694924056112	1056.072506560613	47.195992604502	290.782769821993	1073.926045668552	1101.101950362147	76.030894052690	1286.586055663462	947.838949291048	73.851886825404	815.407682731580	1140.482000704656	681.217526278897	798.141503628683	882.894204072677	728.195582406628	
110	1.993500000000	761.420716075372	1009.845628403374	412.344744270532	975.586027867703	1418.531853154603	219.536799920756	1056.368520106775	1357.330161636341	395.424854974057	959.848582708523	1447.843615140382	554.648428247404	957.761876405573	1491.752799597957	368.529096531522	981.678676213931	941.357002219940	540.506238799525	983.856652554570	963.393798937281	265.389656998315	1073.634549508425	793.841388943822	525.708238082740	1044.629838169685	672.705591610798	607.806434379200	1143.242641482287	641.857314120673	536.319511811470	1181.481221016515	542.778232695632	567.921968277036	1002.061005166887	745.779404758914	288.476457063603	892.852432312478	641.268077658665	232.287697736195	967.886858439659	553.460260757904	289.912679307582	958.742791940835	487.012048586774	300.084324378328	930.978410141820	418.248601280247	295.863194602326	833.153011304878	305.442660493355	256.184282006984	890.129339046633	194.877760662445	326.092042839984	1133.840465225773	452.459002745041	573.552059549020	1034.758559743093	369.462016291164	628.526665678983	1070.301336345889	262.464992226004	584.826517696256	916.868193384561	122.642615597982	544.025445486642	1089.005303386567	139.620088779115	606.257450354720	985.000815598679	96.936152918636	628.955630904297	1187.384017763508	62.774087279201	649.318744508290	764.504201749504	39.285756663111	382.706705246388	835.475560149879	34.421314209004	299.320677155692	919.414133913262	97.510193788570	320.851198849740	1046.766744047694	47.162725495322	290.765790804461	1075.916870899916	1102.378844071259	75.399777413298	1295.048719941738	958.452041788401	74.378728500436	808.952994912641	1143.410605722861	682.176346859396	778.748888492035	887.633124062199	731.596672593199	
111	2.005000000000	760.706153616038	1009.522641661457	412.732605825181	976.056249707639	1417.753826798866	220.865877205160	1056.166433362346	1356.273044982042	396.960922822925	959.415786686845	1447.024851643695	555.829167618628	957.866445412773	1490.913669292937	369.804076302639	980.303533640623	940.217750428018	541.542257417145	983.355770805400	962.771471568368	266.409053739561	1070.983595477567	792.327672138139	525.791794896952	1041.915820508129	670.988965608440	607.816176129273	1140.066572869038	640.161049581728	535.833542318403	1179.336563008872	543.420285913867	567.317795594758	998.968313422821	744.280797449357	289.348795911372	888.104761967383	641.170701774224	232.992975310195	961.404521508205	552.405245895273	290.882842499166	951.451688846714	486.231117342875	301.118482047932	923.428380494107	417.850805044300	296.684518247479	825.306380040428	305.475995880015	256.362322456887	881.436097350844	194.617879453091	326.622319114784	1136.309076154125	452.509330187991	573.696443820496	1042.909740487093	364.042521457709	629.688257493464	1084.902172586950	259.143447063357	586.379618175391	940.552362902742	109.807005977532	546.547870875726	1111.459423033466	137.394417541640	608.552065816220	1010.308735199191	88.698143327059	631.592743028774	1214.228977973326	66.914536838692	651.877359431989	755.240726875283	39.225315036723	382.762991727533	826.140050845947	34.406547138436	299.358387761493	910.098699613256	97.443010016217	321.029565125746	1037.443305839134	47.139768585351	290.744773774820	1077.375005482366	1103.340786511980	75.001113465164	1302.325810440585	968.742149493377	75.282637535323	802.485777524535	1146.608897996481	683.344114093319	761.246690503304	893.006021888003	734.563132202716	
